<?xml version="1.0" encoding="UTF-8" standalone="no"?>
<svg
   xmlns:dc="http://purl.org/dc/elements/1.1/"
   xmlns:cc="http://creativecommons.org/ns#"
   xmlns:rdf="http://www.w3.org/1999/02/22-rdf-syntax-ns#"
   xmlns:svg="http://www.w3.org/2000/svg"
   xmlns="http://www.w3.org/2000/svg"
   id="svg8"
   preserveAspectRatio="xMidYMid meet"
   viewBox="0 0 100 100"
   height="100pt"
   width="100pt"
   version="1.0">
  <defs
     id="defs12" />
  <metadata
     id="metadata2">
Created by potrace 1.15, written by Peter Selinger 2001-2017
<rdf:RDF>
  <cc:Work
     rdf:about="">
    <dc:format>image/svg+xml</dc:format>
    <dc:type
       rdf:resource="http://purl.org/dc/dcmitype/StillImage" />
    <dc:title></dc:title>
  </cc:Work>
</rdf:RDF>
</metadata>
  <g
     style="fill:#4d1859;stroke:none"
     id="g6"
     transform="matrix(0.00647379,0,0,-0.00647379,-21.208501,118.15336)">
    <path
       style="fill:#4d1859"
       id="path4"
       d="m 8875,18139 c -136,-20 -280,-83 -379,-164 l -56,-45 -62,30 c -124,58 -373,119 -488,119 -145,1 -308,-43 -475,-126 -143,-72 -211,-119 -314,-217 -141,-135 -257,-306 -282,-418 l -13,-56 -86,-32 c -110,-42 -198,-94 -286,-169 -90,-77 -144,-146 -188,-243 -60,-129 -80,-217 -81,-353 0,-66 4,-139 8,-162 l 9,-42 -49,-14 c -166,-51 -302,-147 -378,-268 -100,-158 -125,-443 -48,-555 12,-19 23,-37 23,-41 0,-3 -16,-31 -35,-63 -19,-31 -51,-106 -72,-166 -36,-105 -38,-114 -38,-244 0,-130 1,-139 39,-250 67,-199 104,-256 227,-349 l 84,-63 -4,-102 c -2,-83 1,-113 19,-166 36,-108 149,-290 222,-357 46,-43 181,-112 249,-128 167,-38 348,-1 467,94 l 37,31 70,-13 c 62,-12 70,-16 73,-38 11,-82 123,-484 166,-596 90,-233 240,-602 295,-722 69,-152 227,-459 297,-577 l 46,-78 -12,-111 c -45,-420 -61,-518 -120,-753 -66,-256 -80,-352 -80,-537 0,-148 17,-222 75,-340 42,-84 64,-117 200,-300 77,-103 122,-181 214,-370 84,-171 107,-223 186,-415 24,-58 61,-145 83,-195 22,-49 83,-200 135,-335 53,-135 119,-299 147,-365 29,-66 83,-196 120,-290 37,-93 91,-226 119,-295 29,-69 88,-223 132,-344 44,-120 131,-347 194,-505 62,-157 132,-340 155,-406 23,-66 76,-210 117,-320 187,-496 219,-625 203,-808 -18,-211 -23,-509 -10,-654 6,-78 13,-224 13,-325 2,-168 0,-187 -19,-229 -20,-42 -31,-51 -115,-95 -109,-57 -176,-120 -216,-201 -25,-52 -28,-68 -28,-158 0,-117 13,-149 92,-229 55,-55 81,-68 183,-92 106,-24 183,-16 245,24 128,82 126,81 270,103 77,11 163,25 192,29 77,12 166,64 229,134 68,77 106,147 139,261 25,84 27,110 35,375 5,157 13,306 19,332 50,231 89,319 222,493 134,177 176,269 186,410 9,140 -45,280 -181,464 -164,224 -259,358 -276,391 -28,56 -88,204 -140,345 -78,216 -197,784 -229,1095 -5,52 -16,149 -25,215 -34,277 -50,576 -51,970 v 390 l 55,11 c 134,26 272,93 456,219 60,41 173,117 251,170 186,125 410,303 764,605 67,58 170,145 228,194 58,48 174,150 257,225 83,75 227,203 320,286 171,152 239,215 533,495 243,232 828,818 953,955 224,247 392,389 704,596 83,55 362,267 454,344 106,90 146,134 239,260 133,180 154,206 200,247 90,79 165,103 362,117 100,7 124,12 169,37 138,75 192,161 194,304 1,144 -47,234 -156,292 -46,25 -92,27 -418,18 -85,-2 -153,3 -214,14 -162,30 -288,15 -419,-48 -54,-26 -106,-66 -211,-161 -167,-152 -237,-203 -365,-265 -156,-77 -165,-78 -406,-70 -307,11 -387,0 -521,-75 -120,-67 -229,-218 -269,-372 -22,-85 -83,-260 -107,-307 -28,-56 -177,-272 -230,-333 -46,-53 -150,-146 -261,-231 -158,-122 -347,-230 -645,-365 -235,-108 -362,-152 -577,-201 -143,-33 -432,-121 -542,-165 -92,-36 -276,-132 -358,-186 -137,-90 -279,-253 -369,-425 l -40,-75 -21,70 c -37,117 -72,202 -140,337 -37,72 -62,134 -58,141 4,7 39,53 77,102 229,294 256,332 392,550 143,229 265,457 314,590 23,61 59,155 80,210 35,88 126,391 145,483 8,39 2,39 140,-3 182,-56 365,-32 537,72 59,35 95,66 138,118 31,39 62,79 68,90 27,49 27,49 75,12 54,-41 174,-92 239,-101 62,-9 195,10 274,38 87,32 200,101 255,157 73,72 129,202 129,298 v 28 l 89,6 c 151,10 286,68 402,175 157,144 169,366 33,599 l -19,32 32,33 c 81,84 112,218 95,415 -15,184 -70,326 -169,443 -18,21 -33,41 -33,44 0,3 17,32 37,63 59,92 76,146 76,243 0,149 -45,248 -174,384 -112,118 -172,148 -313,154 l -102,4 v 112 c -1,235 -93,434 -293,635 -109,110 -195,166 -316,207 -77,25 -86,26 -240,21 -147,-5 -170,-8 -280,-41 -65,-20 -128,-42 -139,-49 -17,-12 -25,-7 -81,47 -79,78 -195,147 -315,187 -84,29 -107,33 -205,33 -119,0 -154,-9 -276,-69 l -66,-33 -77,50 c -85,55 -169,89 -295,121 -130,32 -350,30 -483,-6 -90,-24 -222,-80 -292,-124 -25,-16 -29,-16 -34,-3 -10,29 -88,92 -157,126 -117,58 -349,93 -480,73 z m 340,-204 c 77,-20 144,-61 168,-102 l 18,-32 -58,-70 c -72,-86 -113,-182 -113,-263 0,-55 -1,-58 -27,-63 -244,-50 -403,-125 -561,-265 -50,-44 -93,-80 -96,-80 -2,0 -14,20 -26,45 -26,54 -202,224 -274,266 -106,60 -290,75 -441,35 -80,-22 -268,-118 -350,-179 -153,-114 -340,-395 -353,-529 -4,-42 -1,-50 26,-78 34,-33 59,-37 101,-16 21,12 36,35 61,98 39,100 56,130 131,229 81,108 154,168 277,232 172,89 323,109 435,59 64,-29 202,-155 227,-208 53,-109 33,-222 -63,-349 -64,-85 -114,-121 -189,-137 l -57,-12 -58,55 c -62,59 -131,104 -183,119 -39,11 -93,-8 -109,-38 -29,-55 -4,-105 72,-143 69,-36 103,-67 147,-134 86,-132 85,-193 -3,-323 -74,-107 -149,-263 -183,-377 -31,-106 -44,-314 -26,-429 l 11,-70 -37,-42 c -20,-23 -40,-43 -43,-43 -3,-1 -12,18 -19,42 -21,72 -60,139 -126,219 -55,65 -77,82 -152,121 -184,95 -334,102 -507,23 -77,-35 -143,-89 -205,-168 l -53,-68 h -87 c -166,0 -274,-69 -239,-152 20,-49 73,-62 131,-32 34,18 129,21 170,5 18,-7 39,-34 69,-92 61,-113 101,-140 162,-107 64,34 62,79 -9,202 l -55,97 39,45 c 53,59 80,79 149,112 50,23 71,27 148,27 85,0 95,-2 177,-42 73,-35 93,-50 137,-105 94,-116 126,-274 101,-497 -19,-175 -43,-218 -138,-248 -59,-19 -102,-60 -102,-98 0,-13 12,-38 27,-55 25,-30 30,-32 83,-28 31,2 76,14 100,26 24,11 47,19 52,16 4,-3 8,-47 8,-97 0,-130 -41,-255 -107,-321 -83,-85 -253,-147 -357,-132 -94,14 -199,109 -225,202 -15,55 -13,191 4,239 27,75 16,116 -36,134 -95,33 -158,-110 -146,-331 6,-110 36,-192 97,-261 38,-44 33,-57 -37,-81 -120,-41 -243,-27 -350,40 -67,41 -121,110 -185,233 -42,81 -43,86 -43,176 0,88 2,96 42,177 52,103 110,161 244,241 111,65 122,77 122,119 0,38 -41,78 -81,78 -36,0 -249,-120 -310,-175 -27,-24 -66,-69 -87,-99 l -38,-56 -61,48 c -50,38 -68,61 -98,122 -20,41 -49,116 -63,165 -23,76 -26,103 -22,175 6,104 42,218 99,314 74,126 298,326 364,326 65,0 99,87 54,135 -55,59 -174,19 -338,-111 -46,-37 -86,-64 -89,-61 -3,4 -8,37 -10,74 -9,124 45,273 129,355 58,56 197,128 262,135 45,5 47,4 128,-67 98,-85 248,-162 360,-187 144,-30 361,0 508,71 l 51,25 56,-20 c 75,-26 116,-24 149,5 22,18 28,32 27,60 -1,51 -25,73 -104,96 -78,24 -94,43 -85,99 18,101 18,105 -4,129 -32,34 -91,31 -124,-8 -33,-40 -49,-99 -44,-169 l 3,-55 -67,-23 c -231,-80 -418,-43 -614,121 -110,91 -142,171 -130,318 13,161 71,295 170,393 88,87 177,146 281,186 77,30 84,31 189,26 l 109,-6 28,29 c 16,16 29,37 29,48 0,23 -46,82 -63,82 -35,0 -87,23 -87,37 0,44 115,209 215,307 79,78 142,124 246,180 176,95 353,135 511,117 88,-10 300,-61 336,-80 26,-14 27,-21 7,-47 -8,-10 -15,-37 -15,-60 0,-53 33,-86 84,-86 45,0 54,7 123,99 93,124 185,189 324,228 70,19 297,14 384,-10 z m 1007,-29 c 136,-25 216,-56 323,-127 132,-87 218,-168 301,-285 77,-108 95,-124 142,-124 47,0 82,37 82,87 0,31 -14,57 -75,143 -41,57 -94,123 -117,147 l -42,42 39,17 c 96,40 202,35 335,-17 203,-78 340,-228 340,-374 0,-80 -17,-180 -37,-219 -38,-73 -108,-167 -186,-248 -69,-72 -98,-94 -162,-125 -65,-31 -92,-37 -160,-41 l -82,-4 -27,78 c -16,44 -41,104 -56,134 -55,110 -252,309 -362,366 -74,38 -128,30 -156,-23 -29,-53 -6,-100 66,-138 60,-31 168,-125 225,-195 71,-88 121,-203 148,-338 14,-72 7,-303 -11,-364 l -11,-38 h -98 c -194,0 -353,-81 -498,-255 -93,-112 -137,-196 -193,-363 -110,-331 -161,-433 -260,-520 -62,-54 -97,-70 -145,-65 -34,4 -45,0 -68,-23 -41,-41 -32,-108 24,-169 10,-11 28,-43 40,-70 19,-44 21,-60 16,-152 -7,-132 -48,-284 -97,-366 -63,-105 -166,-167 -277,-167 -79,0 -124,23 -178,90 -51,63 -90,86 -130,76 -39,-10 -62,-39 -70,-87 -21,-123 -123,-218 -235,-219 -48,0 -187,30 -236,51 -55,24 -87,52 -105,95 l -19,42 45,69 c 74,112 88,160 89,293 1,139 -14,183 -69,205 -30,13 -40,13 -68,1 -47,-19 -61,-58 -48,-131 25,-135 -33,-286 -136,-358 -102,-70 -238,5 -318,175 -35,74 -39,90 -39,163 1,152 51,311 130,416 43,55 179,159 255,194 122,55 240,68 391,40 91,-16 123,-34 200,-112 84,-85 119,-179 125,-330 6,-127 2,-132 -55,-82 -28,25 -41,30 -66,25 -90,-17 -86,-137 6,-194 19,-12 63,-29 98,-38 53,-13 76,-14 137,-5 90,13 124,30 186,90 85,81 98,132 47,183 -44,44 -91,35 -145,-28 l -40,-46 -1,119 c -1,101 -5,129 -27,192 -36,99 -35,101 16,101 68,0 170,26 238,61 98,49 224,180 278,289 23,47 47,113 53,148 11,57 10,65 -9,90 -14,19 -30,28 -57,30 -50,4 -72,-17 -92,-87 -31,-108 -97,-200 -190,-267 -77,-55 -128,-73 -224,-81 l -76,-6 -54,45 c -74,59 -137,139 -150,189 -13,49 0,125 30,174 26,42 127,138 167,159 37,19 134,40 283,62 279,42 462,134 548,276 37,62 67,184 58,240 -17,108 -93,203 -208,260 -117,58 -219,68 -320,29 -67,-25 -89,-96 -45,-147 26,-30 39,-31 154,-19 53,6 68,4 115,-18 29,-14 60,-32 68,-39 75,-63 64,-189 -24,-266 -78,-68 -176,-102 -419,-143 -269,-46 -318,-68 -447,-198 -130,-131 -175,-270 -137,-418 l 14,-51 -136,5 c -183,8 -244,-8 -465,-115 -5,-3 -6,48 -4,114 4,93 11,138 33,204 33,103 110,258 160,326 158,210 403,362 648,403 125,21 149,36 149,96 0,45 -32,82 -77,91 -43,8 -199,-20 -280,-50 -77,-30 -78,-29 -35,79 74,186 155,311 276,423 98,92 165,134 287,180 145,54 213,66 392,66 191,0 229,-11 354,-105 109,-82 164,-144 190,-212 27,-74 27,-77 -10,-123 -44,-54 -79,-132 -79,-175 0,-72 67,-116 129,-84 17,8 31,19 31,23 0,5 16,27 35,50 53,62 91,65 162,16 70,-48 114,-51 149,-10 25,29 31,74 14,106 -16,30 -115,96 -164,110 -48,13 -53,20 -92,134 -45,130 -95,190 -263,315 -141,104 -212,130 -381,140 -104,6 -105,6 -108,32 -6,50 44,130 145,234 111,114 154,142 280,184 146,49 271,60 405,37 z m 2083,-300 c 67,-32 97,-55 180,-140 154,-157 224,-293 233,-450 6,-111 -9,-179 -59,-275 -47,-89 -51,-136 -14,-175 41,-44 109,-30 145,31 14,23 38,42 76,60 49,22 65,25 120,20 83,-8 136,-36 207,-111 111,-116 146,-247 95,-358 -14,-29 -34,-63 -44,-76 l -19,-23 -75,25 c -171,57 -342,58 -534,3 l -115,-33 -42,42 c -106,108 -269,113 -269,9 0,-39 23,-62 92,-89 68,-27 107,-86 110,-166 2,-46 -2,-62 -25,-95 -55,-80 -23,-165 62,-165 33,0 44,6 70,37 51,62 66,102 71,193 l 5,85 90,23 c 149,38 358,21 483,-39 105,-51 201,-179 237,-315 18,-71 20,-279 3,-338 -28,-92 -162,-178 -306,-196 -127,-16 -148,-29 -159,-94 -5,-30 -1,-40 25,-66 22,-22 40,-30 66,-30 63,0 189,21 241,41 27,10 56,19 63,19 25,0 65,-109 70,-191 6,-102 -7,-137 -74,-198 -82,-75 -163,-111 -285,-126 -90,-10 -101,-10 -106,4 -30,96 -108,249 -196,383 -92,141 -97,150 -113,213 -29,108 -7,196 64,255 39,32 118,63 154,60 48,-4 69,1 88,20 20,20 26,63 14,95 -18,46 -129,59 -233,26 -89,-28 -155,-74 -205,-145 -63,-87 -80,-147 -73,-254 7,-117 35,-191 132,-337 162,-247 225,-407 211,-538 -12,-121 -63,-183 -211,-257 -74,-38 -92,-43 -172,-47 -82,-5 -96,-3 -147,20 -71,33 -136,85 -183,149 -42,58 -70,72 -113,57 -38,-14 -46,-29 -65,-121 -17,-79 -27,-98 -93,-175 -55,-64 -167,-124 -278,-148 -73,-17 -82,-17 -156,-1 -139,30 -186,53 -263,131 -73,72 -111,135 -86,143 47,16 171,115 237,190 174,197 222,323 147,382 -53,41 -124,12 -143,-60 -23,-85 -207,-289 -303,-335 -45,-21 -76,-29 -145,-32 -182,-11 -347,42 -417,134 -61,80 -61,79 64,199 78,74 122,126 148,171 30,55 39,64 57,58 213,-62 328,-60 461,7 115,59 199,151 231,253 l 17,52 96,6 c 53,3 121,13 151,22 l 55,15 27,-31 c 26,-31 140,-243 152,-285 5,-17 -3,-27 -48,-57 -40,-26 -60,-49 -80,-88 -30,-60 -32,-88 -11,-128 34,-67 128,-57 158,17 22,55 67,85 136,90 48,3 61,0 91,-22 60,-44 90,-55 122,-44 56,20 65,88 19,141 -35,39 -111,83 -162,92 -33,6 -38,12 -78,99 -23,52 -72,139 -108,195 l -65,102 59,62 c 32,34 74,84 92,111 l 33,48 75,-7 c 69,-6 77,-5 99,16 17,16 24,33 24,59 0,47 -32,78 -91,88 l -44,8 -2,104 c -2,157 -56,311 -158,455 -59,83 -157,175 -187,175 -31,0 -67,-26 -78,-56 -13,-34 2,-68 60,-130 109,-121 169,-259 177,-416 5,-88 3,-103 -21,-162 -80,-201 -236,-296 -485,-296 -112,0 -171,-41 -171,-119 0,-76 -65,-162 -155,-207 -88,-42 -230,-42 -314,1 -23,11 -24,16 -26,146 -3,140 -15,208 -58,318 -28,74 -55,101 -101,101 -81,-1 -107,-80 -62,-188 14,-33 30,-100 37,-157 11,-87 10,-109 -4,-174 -24,-103 -86,-212 -166,-290 -88,-85 -111,-102 -218,-155 -113,-57 -219,-81 -317,-73 -92,8 -103,19 -85,89 8,31 14,110 14,193 0,137 -2,150 -39,235 -5,11 12,27 58,58 36,23 89,69 118,101 97,108 137,189 237,488 63,186 95,247 183,352 100,120 220,181 352,181 96,0 135,-13 191,-62 105,-92 160,-198 178,-340 6,-47 6,-48 -20,-48 -14,0 -55,16 -90,35 -74,40 -107,44 -140,13 -55,-51 -14,-124 103,-183 56,-29 65,-30 184,-30 123,0 126,0 188,34 76,41 155,124 201,210 27,51 34,77 35,123 1,54 -2,62 -27,84 -39,33 -81,31 -118,-5 -16,-16 -29,-40 -29,-53 0,-29 -34,-94 -68,-130 -31,-34 -42,-35 -42,-5 0,39 -40,170 -73,236 -21,44 -59,92 -124,158 l -94,95 21,95 c 11,53 23,138 27,189 l 6,92 56,6 c 150,17 283,72 372,154 31,29 59,52 62,52 3,0 17,-25 32,-56 82,-174 215,-298 396,-371 97,-39 168,-49 252,-35 128,22 221,81 272,173 28,51 30,61 30,164 0,168 -45,282 -159,404 -41,44 -114,91 -142,91 -30,0 -72,-38 -80,-72 -5,-24 2,-36 64,-98 47,-46 81,-92 103,-136 30,-61 33,-74 33,-164 1,-84 -2,-101 -19,-120 -54,-61 -175,-80 -277,-43 -181,66 -319,227 -334,391 -7,70 -6,72 34,139 49,83 66,137 82,273 13,106 11,123 -24,235 -6,18 3,23 96,47 94,24 118,27 263,25 l 160,-2 z m -2097,-3396 c 51,-92 115,-151 216,-200 105,-49 192,-70 304,-70 70,0 83,-3 88,-17 16,-51 43,-103 77,-148 41,-54 44,-74 26,-171 -29,-160 -171,-594 -211,-641 -6,-7 -25,-20 -42,-28 -50,-24 -244,-82 -331,-100 -182,-37 -569,-42 -800,-10 -55,7 -131,16 -170,20 -193,17 -377,61 -607,145 -141,52 -327,166 -343,211 -8,23 69,276 133,438 l 58,144 61,17 c 85,23 142,59 211,135 l 60,65 63,-32 c 62,-32 68,-33 184,-33 118,0 121,1 198,37 92,44 181,125 233,210 20,32 36,58 37,58 1,0 34,-7 72,-15 123,-26 300,-13 395,29 19,8 40,15 45,16 6,0 25,-27 43,-60 z m 5242,-43 c 0,-14 -65,-210 -74,-226 -5,-8 -222,52 -235,65 -3,3 15,25 40,50 49,51 114,88 192,109 67,18 77,18 77,2 z m 170,-6 c 30,-5 80,-12 110,-16 58,-6 119,-22 133,-35 7,-6 -40,-150 -88,-272 -4,-10 -15,-18 -24,-18 -19,0 -301,87 -309,95 -3,3 9,53 27,111 47,156 47,155 73,150 13,-3 48,-10 78,-15 z m -7835,-91 c 86,-42 161,-55 229,-37 l 54,13 34,-50 c 18,-28 51,-64 74,-81 44,-34 142,-77 212,-95 23,-6 42,-15 42,-20 0,-6 -22,-58 -48,-118 -47,-103 -106,-270 -152,-434 l -22,-76 -89,-41 c -159,-73 -178,-76 -424,-76 -249,1 -299,9 -316,53 -10,26 -26,76 -102,320 -20,62 -38,130 -42,151 -6,38 -6,38 42,56 128,47 253,141 311,233 27,42 70,159 87,235 6,28 7,28 28,13 12,-9 49,-30 82,-46 z m 8302,-27 c 157,-52 163,-58 117,-113 -43,-50 -87,-66 -204,-74 -58,-3 -117,-9 -133,-12 l -27,-6 34,98 c 49,140 55,154 63,154 4,0 72,-21 150,-47 z m -867,-125 c 72,-23 130,-47 130,-52 0,-22 -102,-316 -109,-316 -9,0 -304,100 -308,104 -2,2 14,57 35,123 32,99 45,126 73,151 19,17 37,32 42,32 4,0 66,-19 137,-42 z m 326,-104 c 63,-20 114,-37 114,-38 0,-1 -30,-26 -66,-56 -36,-29 -95,-91 -132,-136 -36,-46 -69,-84 -73,-84 -7,0 -72,22 -77,26 -8,6 100,324 109,324 6,0 62,-16 125,-36 z m -791,-164 c 48,-16 90,-32 93,-34 4,-5 -87,-287 -97,-298 -5,-6 -287,87 -301,99 -6,5 60,205 72,218 11,12 95,42 124,44 11,0 60,-12 109,-29 z m -305,-28 c 0,-9 -60,-175 -65,-180 -6,-6 -335,111 -335,119 0,4 5,20 10,35 l 11,27 142,-5 c 78,-3 156,-2 172,2 42,11 65,11 65,2 z m 605,-76 c 163,-55 165,-56 165,-70 0,-20 -86,-276 -96,-286 -13,-13 -304,90 -304,108 0,11 64,223 85,280 6,17 6,17 150,-32 z m -1168,3 c 32,-12 62,-25 67,-30 8,-7 -88,-303 -105,-323 -7,-8 -35,0 -186,56 -64,24 -67,38 -24,133 36,79 74,129 120,161 44,29 55,30 128,3 z m 469,-171 c 6,-6 -85,-277 -107,-319 -7,-15 -27,-10 -171,43 -89,32 -164,61 -166,63 -4,3 71,220 103,301 l 13,32 160,-57 c 89,-31 164,-60 168,-63 z m 224,-74 c 74,-26 139,-50 143,-54 12,-11 -95,-340 -111,-340 -17,0 -285,99 -296,110 -7,7 24,109 95,308 5,12 14,22 21,22 7,0 74,-21 148,-46 z m -812,-151 c 24,-9 46,-22 49,-29 3,-8 -6,-44 -19,-80 -24,-64 -27,-67 -74,-85 -32,-12 -63,-34 -90,-65 l -42,-46 -61,23 c -34,12 -64,26 -67,31 -3,5 1,19 9,32 18,26 87,192 87,206 0,6 6,26 14,45 l 15,35 68,-26 c 37,-15 87,-33 111,-41 z m 1166,26 c 64,-23 115,-45 114,-50 -2,-4 -68,-56 -147,-116 -79,-59 -154,-116 -167,-126 -15,-12 -29,-15 -38,-10 -13,7 -6,35 40,176 35,105 60,167 69,167 7,0 65,-19 129,-41 z m -878,-135 c 82,-30 153,-59 158,-64 8,-8 -88,-295 -105,-314 -5,-6 -43,4 -96,24 -49,18 -123,46 -166,63 -45,17 -75,33 -70,38 5,5 35,10 68,12 49,3 62,8 82,31 41,48 24,108 -37,134 -22,9 -40,22 -40,28 0,26 33,104 45,104 6,0 79,-25 161,-56 z m 537,-203 c 20,-20 -16,-61 -105,-118 -51,-33 -115,-78 -141,-101 l -48,-41 -57,20 c -31,12 -60,25 -65,28 -7,7 88,295 105,317 6,8 51,-4 156,-43 81,-30 151,-58 155,-62 z m -1093,-20 75,-29 -3,-70 c -4,-73 6,-105 40,-132 19,-16 19,-17 -8,-90 -14,-41 -30,-79 -34,-83 -7,-8 -316,97 -334,114 -16,15 18,79 105,202 46,64 84,117 84,117 0,0 34,-13 75,-29 z m -5126,-115 c 120,-71 214,-118 305,-150 122,-44 533,-145 633,-156 270,-29 898,-41 1011,-19 27,5 61,9 74,9 24,0 24,0 -18,-77 -74,-136 -86,-147 -184,-172 -238,-60 -542,-54 -1040,21 -275,41 -309,50 -565,136 -191,64 -270,106 -383,202 -11,9 53,260 66,260 6,0 51,-24 101,-54 z m 5543,-47 c 87,-33 161,-63 164,-67 8,-9 -105,-327 -117,-327 -14,0 -308,107 -321,117 -9,7 -4,32 22,103 18,51 40,107 49,123 9,17 16,38 16,46 0,18 18,66 24,66 2,0 76,-27 163,-61 z m -5867,1 c -1,-13 -59,-232 -62,-236 -3,-2 -30,-9 -61,-15 -83,-17 -171,-4 -242,34 -56,32 -59,36 -91,116 -19,46 -34,89 -34,95 0,8 71,11 245,11 135,0 245,-2 245,-5 z m 5034,-333 c -31,-87 -62,-157 -68,-157 -17,0 -170,60 -181,71 -7,7 -4,14 8,20 27,15 144,105 221,171 38,32 71,56 73,54 2,-1 -22,-73 -53,-159 z m 303,82 c 134,-51 163,-65 158,-78 -4,-9 -29,-78 -56,-154 -27,-76 -52,-145 -56,-152 -6,-10 -45,1 -172,49 -91,35 -166,67 -168,73 -3,8 26,94 99,296 5,15 15,27 21,27 6,0 84,-28 174,-61 z m 379,-140 c 76,-28 143,-55 148,-60 10,-9 -163,-201 -226,-251 l -39,-30 -74,27 c -42,15 -77,30 -80,34 -7,12 109,331 121,331 6,0 73,-23 150,-51 z m -5495,-129 110,-125 -123,-116 c -123,-117 -123,-117 -151,-102 -23,12 -27,19 -23,41 14,66 46,284 52,355 4,43 11,76 15,75 5,-2 59,-59 120,-128 z m -375,90 h 63 l -5,-32 c -23,-176 -37,-265 -43,-275 -6,-12 -171,284 -171,308 0,8 14,10 46,5 26,-3 75,-6 110,-6 z m 4989,-75 c 55,-21 104,-41 109,-46 7,-7 -78,-267 -105,-320 -7,-15 -28,-9 -174,44 -120,43 -165,64 -165,76 0,18 56,190 68,207 14,20 147,92 157,84 6,-4 55,-24 110,-45 z m -4213,-76 c 46,-17 118,-39 160,-49 82,-19 98,-26 98,-40 0,-10 -226,-220 -238,-220 -4,0 -56,54 -116,121 l -109,121 49,49 c 26,27 54,49 60,49 7,0 50,-14 96,-31 z m 4548,-55 c 80,-31 155,-60 167,-65 22,-8 22,-8 -33,-166 -30,-87 -58,-161 -62,-165 -6,-5 -326,106 -341,119 -9,7 106,333 118,333 3,0 71,-25 151,-56 z m -3993,-59 c 87,-14 177,-25 200,-25 23,0 44,-4 47,-8 2,-4 -44,-52 -102,-106 l -107,-97 -117,123 c -65,68 -118,126 -118,131 0,11 27,9 197,-18 z m -692,-119 c 54,-62 100,-117 102,-122 3,-10 -222,-217 -241,-222 -13,-3 -211,213 -211,231 0,16 223,227 238,226 7,0 57,-51 112,-113 z m 561,-26 c 60,-66 109,-127 109,-134 0,-11 -214,-216 -234,-224 -9,-3 -233,247 -229,257 4,10 231,220 239,221 3,0 54,-54 115,-120 z m 3254,84 c 52,-19 99,-39 104,-44 6,-6 -86,-302 -100,-319 -7,-8 -324,113 -324,124 0,7 16,56 37,110 l 36,96 66,34 c 36,19 71,34 76,34 6,1 53,-15 105,-35 z m -2281,19 c -1,-12 -215,-203 -226,-203 -9,0 -131,131 -173,184 -15,18 -13,19 55,13 39,-3 117,-2 175,2 154,11 170,12 169,4 z m 3516,-44 c 6,-6 -31,-49 -100,-119 -60,-60 -111,-108 -113,-106 -3,4 83,250 94,267 4,8 103,-27 119,-42 z m -3901,-81 c 58,-67 105,-125 104,-129 -2,-4 -59,-58 -127,-120 l -125,-112 -112,119 c -62,66 -112,123 -111,127 3,10 249,236 258,237 3,0 54,-55 113,-122 z m 2336,38 c 0,-7 -52,-150 -55,-154 -2,-2 -49,13 -105,33 -55,21 -98,40 -95,43 5,6 233,81 248,82 4,0 7,-2 7,-4 z m 676,-62 c 82,-30 152,-59 157,-63 5,-6 -95,-306 -106,-318 -6,-6 -322,117 -325,126 -3,9 82,280 95,304 8,13 29,7 179,-49 z m -907,-95 c 75,-28 140,-54 144,-58 7,-7 -102,-324 -116,-338 -5,-4 -304,101 -313,110 -2,1 25,78 58,170 42,115 66,167 76,167 9,0 77,-23 151,-51 z m -275,-66 c -20,-54 -43,-117 -51,-141 -9,-24 -21,-46 -27,-48 -10,-4 -88,22 -298,98 -35,12 -36,33 -3,54 23,15 375,132 402,133 8,1 0,-33 -23,-96 z m -3275,-40 c 56,-62 101,-116 101,-121 0,-11 -247,-242 -258,-242 -4,0 -19,15 -34,34 l -27,33 18,172 18,172 33,34 c 19,20 37,34 41,33 4,-2 53,-53 108,-115 z m 4866,50 c 83,-30 154,-58 158,-62 15,-15 -6,-40 -127,-154 l -123,-116 -94,35 c -52,20 -98,39 -102,44 -5,4 8,54 28,111 76,211 76,211 93,204 10,-4 85,-32 167,-62 z m -4320,-55 c 50,-55 100,-112 112,-128 l 23,-28 -121,-112 c -66,-61 -123,-110 -128,-108 -9,4 -231,246 -231,252 0,8 241,226 248,225 4,0 48,-46 97,-101 z m 593,-53 c 56,-60 101,-115 100,-121 -3,-13 -235,-224 -246,-224 -9,0 -212,226 -212,237 -1,16 225,223 240,220 9,-1 62,-51 118,-112 z m 408,11 c -35,-45 -80,-108 -101,-139 -21,-31 -41,-57 -46,-57 -13,0 -60,63 -52,70 180,163 247,219 254,215 4,-3 -20,-43 -55,-89 z m 2392,7 c 83,-31 152,-60 152,-64 0,-4 -25,-82 -56,-174 -47,-137 -59,-165 -73,-160 -9,4 -83,31 -165,61 -83,30 -152,56 -154,59 -4,3 102,306 115,328 8,13 26,8 181,-50 z m -1158,-37 c 0,-8 -22,-74 -49,-148 -65,-176 -61,-168 -77,-168 -30,0 -234,83 -234,95 0,20 107,111 185,157 38,23 84,49 100,59 36,22 75,25 75,5 z m 380,-136 c 17,-9 14,-20 -39,-165 -32,-85 -60,-157 -64,-161 -6,-6 -305,101 -320,116 -8,7 78,261 104,312 8,14 25,10 155,-38 80,-30 154,-58 164,-64 z m -1413,53 c 12,-21 31,-61 42,-90 l 20,-52 -31,-88 c -17,-48 -35,-92 -39,-97 -7,-8 -193,57 -212,74 -5,4 8,34 29,66 48,76 157,224 164,224 4,0 16,-17 27,-37 z m 2575,-20 c 87,-32 158,-63 158,-68 0,-15 -109,-318 -118,-326 -7,-7 -300,95 -314,109 -9,9 100,342 110,342 4,0 78,-26 164,-57 z m -4053,-120 c 61,-67 111,-126 111,-130 0,-7 -88,-91 -217,-206 l -41,-38 -116,127 c -64,70 -116,130 -116,135 0,11 253,240 262,236 3,-1 56,-57 117,-124 z m 566,-27 c 55,-62 100,-117 100,-123 0,-9 -229,-223 -239,-223 -9,0 -216,234 -214,241 6,14 233,219 243,218 6,0 55,-51 110,-113 z m 499,57 c 29,-36 29,-36 11,-67 -58,-100 -95,-168 -120,-223 -15,-35 -31,-63 -34,-63 -12,0 -153,160 -149,169 6,16 238,221 251,221 7,0 25,-16 41,-37 z m 2079,-33 c 71,-27 131,-51 134,-54 9,-8 -110,-326 -122,-326 -12,0 -296,107 -303,115 -4,4 60,185 104,293 16,39 -1,41 187,-28 z m 1305,-30 c -5,-12 -289,-272 -293,-269 -4,4 98,287 114,317 10,19 13,19 96,-11 47,-17 84,-34 83,-37 z m -2145,-97 c 37,-14 67,-29 67,-34 0,-11 -116,-329 -123,-335 -3,-4 -178,57 -299,105 l -28,10 19,48 c 24,60 105,206 138,250 l 25,32 66,-25 c 37,-14 97,-37 135,-51 z m 1209,-8 c 84,-31 158,-57 165,-60 8,-3 -5,-54 -42,-166 -30,-90 -58,-166 -62,-170 -11,-9 -336,114 -341,130 -5,15 108,321 119,321 5,0 77,-25 161,-55 z m -3904,-57 c 22,-24 75,-83 118,-132 l 79,-89 -125,-118 c -69,-65 -130,-119 -137,-119 -6,0 -36,28 -66,63 l -55,62 19,75 c 10,41 25,113 33,160 8,46 20,86 26,88 6,2 23,15 38,28 15,13 28,24 29,24 2,0 20,-19 41,-42 z m 1731,-15 c 51,-21 95,-43 98,-50 5,-11 -93,-299 -107,-315 -3,-5 -62,12 -130,36 -115,41 -125,46 -122,68 6,42 34,122 70,193 50,100 62,117 81,110 9,-3 58,-22 110,-42 z m -1073,-84 c 54,-61 99,-117 99,-124 0,-14 -239,-235 -255,-235 -9,0 -210,221 -210,231 0,8 252,239 260,239 3,0 51,-50 106,-111 z m 2348,45 c 76,-29 141,-56 144,-59 6,-6 -106,-315 -119,-329 -5,-6 -71,14 -166,49 -87,32 -160,60 -162,61 -2,2 25,80 59,174 58,157 65,170 84,164 12,-4 83,-31 160,-60 z m -1800,-56 87,-96 -7,-65 -7,-65 -84,-74 c -46,-40 -88,-74 -93,-76 -8,-3 -235,244 -235,257 0,11 235,223 244,219 4,-2 47,-46 95,-100 z m 3098,21 c 79,-29 147,-55 151,-59 16,-14 -14,-62 -70,-114 -103,-94 -188,-166 -197,-166 -22,0 -156,55 -156,64 0,30 106,326 117,326 7,0 77,-23 155,-51 z m -2339,-20 c 52,-20 56,-24 63,-63 4,-22 8,-98 8,-167 1,-110 4,-130 20,-148 11,-12 17,-23 15,-25 -3,-4 -278,92 -288,100 -5,5 113,324 120,324 4,0 32,-10 62,-21 z m 1413,-85 c 82,-31 150,-57 152,-59 7,-7 -121,-335 -132,-335 -11,0 -295,106 -302,113 -6,6 118,337 126,337 4,0 74,-25 156,-56 z m -919,-111 c 84,-32 153,-63 153,-70 0,-15 -99,-286 -108,-294 -8,-7 -321,106 -336,121 -6,6 1,25 17,48 15,21 27,43 27,49 0,24 73,203 83,203 6,0 79,-26 164,-57 z m -2111,-84 c 54,-61 99,-115 99,-119 0,-13 -248,-231 -259,-228 -17,4 -208,217 -204,227 6,15 243,230 254,231 6,0 56,-50 110,-111 z m 551,24 c 44,-49 96,-107 116,-129 l 37,-42 -131,-116 c -73,-64 -136,-116 -140,-116 -13,0 -224,239 -224,254 0,13 239,236 254,236 4,0 44,-39 88,-87 z m 2865,26 c 90,-33 167,-64 171,-69 10,-9 -88,-326 -104,-335 -9,-6 -335,110 -353,126 -7,6 90,296 111,332 6,10 -4,13 175,-54 z m -2195,-58 c 43,-16 90,-34 105,-40 l 27,-10 -42,-121 c -23,-66 -45,-120 -49,-120 -4,0 -25,27 -47,59 -42,61 -83,158 -95,224 -9,46 -3,47 101,8 z m 1283,-57 c 83,-31 150,-62 150,-69 0,-11 -99,-286 -106,-294 -1,-2 -75,23 -163,55 -102,38 -161,64 -161,73 0,32 103,291 116,291 7,0 81,-25 164,-56 z m -2970,-50 c 0,-18 -134,-137 -138,-124 -3,7 8,59 23,117 l 28,104 43,-42 c 24,-24 44,-49 44,-55 z m 1410,57 c 0,-46 66,-203 120,-288 13,-21 13,-25 -8,-45 l -24,-23 -46,51 c -26,28 -80,88 -120,132 l -72,80 67,60 c 68,60 83,66 83,33 z m 2782,-8 c 24,-9 46,-19 51,-23 4,-3 -36,-46 -88,-94 -53,-49 -98,-86 -101,-83 -5,5 50,186 63,210 7,11 29,8 75,-10 z m -2113,-89 c 57,-21 105,-43 107,-49 4,-10 -89,-291 -99,-302 -2,-2 -68,20 -146,49 -93,35 -147,60 -156,74 -12,19 -8,35 35,153 27,73 52,136 55,141 3,5 26,1 53,-9 26,-10 94,-36 151,-57 z m 1268,-50 c 84,-31 153,-60 153,-65 0,-12 -101,-283 -109,-292 -10,-10 -311,103 -311,117 0,15 104,296 109,296 3,0 73,-25 158,-56 z m -3187,-83 c 56,-62 98,-117 93,-121 -4,-4 -61,-55 -125,-114 -65,-59 -122,-106 -127,-104 -5,1 -43,41 -85,87 -74,82 -76,86 -76,136 v 52 l 102,92 c 55,50 105,90 109,89 5,-2 54,-54 109,-117 z m 618,-58 73,-81 -131,-117 c -71,-64 -134,-115 -139,-113 -5,1 -59,59 -120,127 -107,119 -111,125 -94,141 10,10 69,64 132,120 l 115,103 45,-50 c 25,-27 79,-86 119,-130 z m 533,45 c 51,-57 104,-115 117,-129 l 23,-26 -131,-114 c -72,-63 -135,-115 -139,-117 -9,-3 -232,238 -235,252 -1,7 256,236 265,236 4,0 49,-46 100,-102 z m 1281,-46 c 6,-7 -94,-297 -107,-310 -7,-8 -335,120 -335,130 0,11 73,221 95,275 l 13,31 164,-60 c 89,-33 166,-63 170,-66 z m 1136,0 c 85,-32 152,-62 151,-67 -4,-14 -262,-235 -274,-234 -5,0 -41,12 -80,28 -46,18 -69,32 -67,42 7,34 105,289 111,288 3,0 75,-26 159,-57 z m -795,-122 c 31,-12 57,-23 57,-25 0,-6 -112,-310 -116,-314 -5,-5 -305,109 -318,120 -8,7 9,62 95,296 l 8,23 108,-39 c 59,-22 134,-49 166,-61 z m -2513,-108 c 61,-67 110,-127 108,-131 -6,-19 -242,-222 -253,-219 -17,5 -226,239 -222,251 4,13 241,226 249,224 3,-1 56,-57 118,-125 z m 589,-26 c 61,-68 111,-128 111,-134 0,-10 -247,-227 -259,-227 -12,0 -233,245 -229,254 4,10 251,230 259,231 4,0 57,-56 118,-124 z m 960,73 c 46,-18 85,-39 88,-46 6,-16 -36,-143 -48,-143 -5,0 -21,23 -37,51 -15,28 -46,77 -69,109 -45,60 -52,76 -30,67 6,-3 50,-20 96,-38 z m -359,-100 c 60,-67 110,-125 110,-128 0,-9 -259,-241 -268,-240 -6,1 -141,148 -205,224 l -27,33 132,116 c 73,64 136,116 140,116 4,0 57,-55 118,-121 z m 1605,57 c 80,-30 148,-56 150,-58 3,-2 -21,-75 -52,-161 -41,-114 -60,-157 -72,-157 -26,0 -295,107 -299,119 -2,6 16,67 41,134 66,178 66,177 76,177 6,0 76,-24 156,-54 z m -916,-86 c 85,-33 156,-62 159,-64 4,-4 -94,-284 -104,-295 -1,-1 -59,18 -127,44 l -124,47 -26,67 -26,67 20,55 c 11,30 27,73 35,97 9,23 21,42 27,42 7,0 81,-27 166,-60 z m 1194,-16 c 26,-9 49,-19 52,-23 4,-8 -183,-166 -190,-160 -7,8 70,199 80,199 6,0 32,-7 58,-16 z M 8109,9846 c 61,-69 111,-131 110,-138 -1,-18 -96,-101 -107,-94 -13,8 -165,224 -185,263 -16,30 -16,32 1,38 11,3 29,17 42,30 13,14 24,25 25,25 2,0 52,-56 114,-124 z m 2580,34 c 85,-33 156,-61 158,-63 5,-6 -101,-297 -109,-297 -24,0 -318,124 -318,135 0,7 18,61 40,121 57,153 62,164 69,164 3,0 75,-27 160,-60 z m -1989,-79 112,-123 -23,-23 c -68,-65 -233,-205 -240,-203 -9,3 -229,246 -229,253 0,9 252,226 260,223 4,-2 58,-59 120,-127 z m 589,-26 c 62,-69 111,-129 109,-134 -6,-17 -248,-233 -257,-229 -14,5 -231,246 -231,256 0,10 250,232 261,232 3,0 56,-56 118,-125 z m 565,15 c 75,-82 121,-156 114,-184 -4,-18 -228,-216 -242,-215 -13,1 -221,233 -221,247 0,12 255,244 265,240 3,-2 42,-41 84,-88 z m 1191,-46 c 66,-26 124,-50 128,-54 9,-8 -74,-74 -202,-160 -92,-61 -94,-62 -132,-51 -22,7 -39,14 -39,16 0,4 70,193 99,268 6,15 14,27 18,27 4,0 61,-21 128,-46 z m -810,-95 c 44,-17 84,-34 88,-38 10,-10 -83,-272 -94,-265 -5,3 -9,15 -9,26 0,21 -7,47 -55,209 -14,48 -25,90 -25,93 0,10 12,7 95,-25 z M 8390,9531 c 60,-68 110,-127 109,-130 -1,-8 -166,-151 -174,-151 -3,0 -24,37 -45,83 -21,45 -59,114 -84,152 l -46,70 56,53 c 31,29 60,52 65,50 4,-2 58,-59 119,-127 z m 589,-40 c 62,-68 110,-127 109,-132 -3,-9 -244,-229 -251,-229 -11,0 -238,262 -235,271 6,18 242,220 254,217 7,-2 62,-59 123,-127 z m 584,-20 c 59,-66 107,-124 107,-130 0,-11 -244,-231 -257,-231 -12,0 -225,239 -221,249 4,12 248,231 257,231 4,0 55,-54 114,-119 z m 1002,48 c 92,-36 155,-66 152,-73 -2,-6 -12,-35 -23,-65 -18,-52 -24,-58 -116,-118 -54,-35 -102,-63 -107,-63 -12,0 -173,70 -184,80 -6,6 27,106 92,273 6,15 15,27 20,27 5,0 80,-28 166,-61 z m -547,-84 c 56,-219 65,-346 26,-371 -19,-13 -28,-5 -148,128 l -127,142 68,61 c 37,33 86,77 108,97 22,20 43,34 46,30 4,-4 16,-43 27,-87 z M 8665,9225 c 61,-69 110,-132 110,-140 0,-17 -223,-225 -242,-225 -19,0 -70,68 -88,119 -10,25 -36,83 -58,127 l -40,82 34,29 c 19,17 61,53 93,82 33,28 64,51 70,50 6,0 61,-56 121,-124 z m 589,-39 c 59,-65 105,-123 104,-127 -2,-5 -59,-58 -127,-118 -98,-86 -128,-108 -138,-99 -43,36 -215,240 -207,247 136,124 248,221 254,219 4,-2 55,-57 114,-122 z m 596,-35 c 67,-74 120,-140 118,-146 -4,-14 -244,-225 -256,-225 -11,0 -252,266 -251,277 1,11 252,233 261,230 5,-1 62,-62 128,-136 z m -901,-246 106,-118 -70,-64 c -39,-36 -95,-87 -126,-114 l -57,-49 -112,120 c -61,67 -110,125 -108,130 6,19 240,221 251,217 6,-2 58,-57 116,-122 z m 589,-35 c 67,-74 121,-137 121,-140 -1,-7 -245,-219 -257,-222 -9,-3 -252,260 -252,273 0,10 253,230 260,227 4,-2 61,-64 128,-138 z m 523,48 30,-33 -5,-154 c -5,-152 -6,-154 -33,-183 -15,-17 -40,-38 -54,-49 l -27,-19 -103,116 c -57,64 -104,122 -104,128 0,15 235,225 253,226 7,0 26,-15 43,-32 z m -1377,-322 69,-77 -33,-34 c -19,-19 -39,-35 -45,-35 -8,0 -107,227 -123,284 -3,11 17,-10 132,-138 z m 540,4 c 64,-71 116,-134 116,-139 0,-5 -54,-58 -120,-116 -98,-87 -123,-105 -135,-95 -34,29 -230,253 -230,264 0,14 225,215 241,216 6,0 63,-58 128,-130 z m 590,-37 c 58,-65 106,-122 105,-128 -1,-15 -236,-220 -252,-220 -8,0 -63,53 -122,119 l -107,119 53,46 c 30,25 87,76 129,113 41,37 78,67 82,68 4,0 54,-53 112,-117 z m -897,-224 c 65,-72 118,-136 118,-144 0,-13 -177,-175 -193,-175 -5,0 -41,82 -80,181 l -71,182 47,43 c 26,24 50,43 54,44 3,0 60,-59 125,-131 z m 587,-52 c 58,-65 106,-121 106,-126 0,-5 -55,-57 -122,-117 l -121,-108 -36,40 c -20,23 -72,80 -115,128 l -80,87 49,42 c 27,23 83,72 125,109 41,37 78,66 81,65 4,-1 54,-55 113,-120 z m 512,51 c 82,-87 84,-91 84,-197 v -96 l -73,-66 c -39,-36 -77,-68 -83,-72 -6,-3 -60,48 -124,119 -110,123 -112,127 -94,145 63,61 231,208 239,209 6,0 29,-19 51,-42 z m -825,-300 c 51,-57 101,-112 111,-124 18,-21 17,-22 -106,-132 -68,-62 -128,-112 -133,-111 -4,0 -37,33 -72,72 -58,65 -122,176 -120,209 0,15 198,187 215,188 7,0 54,-46 105,-102 z m 569,-38 c 52,-58 102,-114 112,-126 18,-20 16,-22 -99,-125 -64,-57 -121,-104 -128,-104 -14,0 -225,228 -225,244 0,11 232,222 241,218 3,-1 47,-49 99,-107 z m 354,-72 c 6,-42 16,-238 12,-238 -2,0 -36,36 -76,80 l -72,81 58,54 c 33,30 62,54 66,55 4,0 9,-15 12,-32 z m -637,-203 c 57,-62 105,-119 108,-127 6,-15 -231,-241 -246,-236 -10,4 -229,250 -229,258 0,11 242,220 254,219 6,0 57,-52 113,-114 z m 563,-37 c 55,-61 100,-119 100,-128 0,-10 -50,-64 -111,-121 l -112,-104 -94,100 c -51,55 -103,112 -113,126 l -20,27 115,106 c 63,58 119,106 125,106 5,0 54,-50 110,-112 z m -867,-238 c 59,-66 110,-126 112,-133 6,-14 -101,-111 -114,-103 -4,3 -18,34 -31,68 -12,35 -43,107 -67,162 -43,96 -48,126 -21,126 8,0 62,-54 121,-120 z m 580,-30 c 60,-66 107,-126 104,-133 -3,-7 -59,-63 -125,-125 l -119,-112 -112,124 c -61,69 -111,129 -111,135 0,9 240,231 250,231 3,0 54,-54 113,-120 z m 416,-37 c 1,-40 35,-295 46,-340 3,-13 1,-23 -4,-23 -5,0 -64,60 -131,133 l -121,132 98,94 c 108,104 110,104 112,4 z m -720,-243 c 57,-63 105,-120 107,-126 3,-6 -38,-52 -90,-103 -100,-98 -134,-126 -143,-118 -7,8 -123,329 -123,344 0,15 122,124 136,121 6,-2 57,-55 113,-118 z m 582,-26 c 63,-69 115,-132 117,-139 2,-10 -159,-160 -240,-223 -18,-15 -13,-19 -174,162 l -79,89 125,118 c 69,65 128,119 131,119 4,0 58,-57 120,-126 z m -307,-283 c 64,-71 116,-131 116,-134 0,-4 -62,-61 -137,-128 l -136,-122 -21,25 c -12,14 -56,64 -98,110 -42,46 -82,97 -88,112 -10,27 -7,32 72,105 46,42 103,95 128,118 25,24 46,43 47,43 1,0 54,-58 117,-129 z m 503,67 c 18,-21 37,-93 73,-280 l 11,-58 -62,-57 c -34,-32 -67,-61 -73,-65 -13,-7 -239,238 -234,253 4,10 250,228 259,229 3,0 15,-10 26,-22 z m -216,-388 111,-125 -69,-63 c -37,-34 -98,-89 -134,-122 l -67,-60 -103,112 c -57,62 -111,123 -122,134 -18,21 -17,22 115,137 73,64 138,116 145,114 7,-1 62,-58 124,-127 z m 339,-105 c 10,-39 35,-114 55,-169 19,-54 34,-101 32,-103 -3,-2 -55,53 -116,123 l -112,126 53,49 c 29,26 57,47 62,46 5,-2 17,-34 26,-72 z m -666,-175 c 65,-72 116,-134 114,-138 -7,-15 -135,-132 -145,-132 -12,0 -35,56 -96,232 l -44,126 21,21 c 11,12 23,21 27,21 3,0 59,-59 123,-130 z m 596,-21 c 58,-66 106,-123 108,-127 3,-11 -187,-176 -225,-196 -18,-9 -33,-21 -33,-26 0,-6 -4,-10 -9,-10 -11,0 -221,230 -221,241 0,12 252,239 264,238 6,0 58,-54 116,-120 z m -273,-337 c 77,-85 87,-62 -85,-215 -97,-85 -115,-98 -127,-86 -15,15 -125,294 -124,312 0,7 40,47 87,90 l 87,78 48,-53 c 27,-29 78,-86 114,-126 z m 538,13 c 13,-27 34,-67 47,-89 l 23,-38 -74,-69 c -41,-38 -78,-69 -81,-69 -4,0 -10,18 -13,41 -3,22 -17,64 -32,94 -24,50 -46,70 -130,120 -14,9 -5,21 67,83 l 83,74 44,-48 c 24,-27 54,-71 66,-99 z m -281,-374 -2,-76 -88,-82 c -49,-46 -92,-83 -96,-83 -10,0 -223,231 -223,242 0,5 59,60 130,123 l 130,115 76,-82 75,-81 z m 449,117 c 29,-40 75,-102 101,-138 l 47,-65 -93,-87 c -51,-48 -98,-88 -104,-88 -15,0 -219,228 -221,248 -2,15 191,201 209,202 4,0 32,-33 61,-72 z m -204,-310 c 56,-62 101,-116 101,-119 0,-13 -243,-230 -254,-227 -7,2 -62,57 -124,123 l -112,120 102,97 c 77,73 110,98 130,98 15,0 30,5 33,10 3,6 10,10 15,10 4,0 54,-51 109,-112 z m -531,-145 c -29,-29 -54,-51 -56,-49 -2,2 -10,35 -18,74 -8,38 -25,102 -39,142 -14,41 -25,76 -25,79 1,3 43,-39 95,-94 l 94,-100 z m 961,134 c 45,-79 64,-158 56,-225 -7,-53 -30,-127 -45,-145 -4,-4 -60,52 -126,124 l -118,132 94,88 c 51,48 97,86 101,83 4,-2 21,-28 38,-57 z m -744,-263 117,-125 -84,-78 c -45,-42 -103,-95 -127,-116 l -44,-40 -74,80 -74,80 5,95 4,95 72,68 c 40,37 76,67 80,67 5,0 61,-57 125,-126 z m 608,-52 c 51,-57 92,-107 92,-112 0,-4 -56,-58 -125,-120 l -125,-112 -73,78 c -40,44 -95,104 -122,135 l -49,56 127,116 127,115 28,-26 c 16,-15 70,-73 120,-130 z m -304,-277 c 51,-55 90,-104 89,-110 -4,-13 -235,-225 -246,-225 -4,0 -60,58 -124,129 l -118,129 126,118 126,117 28,-29 c 16,-16 69,-74 119,-129 z m -320,-254 c 61,-69 110,-128 109,-132 -2,-3 -56,-55 -121,-114 l -118,-108 -52,59 c -88,98 -86,94 -93,196 l -7,94 74,67 c 41,37 79,66 85,65 6,-2 61,-59 123,-127 z m 489,73 c 7,-12 2,-35 -14,-74 -12,-31 -35,-120 -51,-198 -15,-78 -30,-141 -33,-141 -12,2 -181,200 -178,208 7,20 234,220 250,220 9,1 21,-6 26,-15 z m -213,-379 c 60,-69 111,-128 112,-132 2,-10 -223,-207 -241,-211 -7,-1 -63,54 -125,124 -108,122 -112,128 -94,144 64,62 225,200 231,199 4,0 56,-56 117,-124 z m -294,-266 113,-132 -31,-26 c -17,-14 -76,-66 -132,-115 l -102,-89 -35,34 c -20,19 -45,46 -55,61 -19,26 -19,30 -5,80 8,29 18,93 22,141 l 6,88 47,44 c 25,25 49,45 52,45 3,0 57,-59 120,-131 z m 406,-128 c -9,-239 -5,-235 -110,-115 -48,54 -87,101 -87,106 0,7 190,178 199,178 2,0 1,-76 -2,-169 z m -148,-167 c 55,-63 101,-120 101,-125 0,-20 -42,-91 -77,-130 -44,-48 -92,-74 -154,-82 l -45,-6 -85,96 c -46,53 -90,105 -97,114 -11,16 2,31 119,133 72,64 133,116 134,116 1,0 48,-52 104,-116 z m -489,-74 30,-38 -117,-102 -117,-103 -53,58 c -29,32 -50,62 -47,67 3,5 40,26 82,47 43,22 96,59 121,85 49,50 50,50 101,-14 z m 154,-179 c 43,-50 77,-93 77,-98 0,-4 -42,-14 -93,-21 -61,-9 -115,-24 -156,-43 -34,-17 -66,-28 -71,-24 -5,3 -23,23 -40,44 l -31,38 112,97 c 62,53 115,96 119,96 3,0 41,-40 83,-89 z m -450,-47 50,-55 -50,-44 c -27,-24 -52,-44 -56,-45 -14,0 -38,59 -38,95 0,38 24,106 37,104 4,-1 30,-26 57,-55 z" />
  </g>
</svg>
